<?xml version='1.0' encoding='UTF-8'?>
<svg width="90mm" height="90mm" version="1.1" viewBox="0 0 90 90" fill_color="#0B1220" back_color="#FFFFFF" xmlns="http://www.w3.org/2000/svg"><rect width="100%" height="100%" fill="#FFFFFF"/><path d="M8,8H10V10H8zM10,8H12V10H10zM12,8H14V10H12zM14,8H16V10H14zM16,8H18V10H16zM18,8H20V10H18zM20,8H22V10H20zM26,8H28V10H26zM30,8H32V10H30zM32,8H34V10H32zM38,8H40V10H38zM42,8H44V10H42zM50,8H52V10H50zM54,8H56V10H54zM60,8H62V10H60zM62,8H64V10H62zM64,8H66V10H64zM68,8H70V10H68zM70,8H72V10H70zM72,8H74V10H72zM74,8H76V10H74zM76,8H78V10H76zM78,8H80V10H78zM80,8H82V10H80zM8,10H10V12H8zM20,10H22V12H20zM24,10H26V12H24zM26,10H28V12H26zM28,10H30V12H28zM30,10H32V12H30zM38,10H40V12H38zM42,10H44V12H42zM68,10H70V12H68zM80,10H82V12H80zM8,12H10V14H8zM12,12H14V14H12zM14,12H16V14H14zM16,12H18V14H16zM20,12H22V14H20zM28,12H30V14H28zM30,12H32V14H30zM32,12H34V14H32zM38,12H40V14H38zM40,12H42V14H40zM46,12H48V14H46zM48,12H50V14H48zM54,12H56V14H54zM62,12H64V14H62zM68,12H70V14H68zM72,12H74V14H72zM74,12H76V14H74zM76,12H78V14H76zM80,12H82V14H80zM8,14H10V16H8zM12,14H14V16H12zM14,14H16V16H14zM16,14H18V16H16zM20,14H22V16H20zM26,14H28V16H26zM28,14H30V16H28zM32,14H34V16H32zM34,14H36V16H34zM36,14H38V16H36zM52,14H54V16H52zM58,14H60V16H58zM60,14H62V16H60zM62,14H64V16H62zM64,14H66V16H64zM68,14H70V16H68zM72,14H74V16H72zM74,14H76V16H74zM76,14H78V16H76zM80,14H82V16H80zM8,16H10V18H8zM12,16H14V18H12zM14,16H16V18H14zM16,16H18V18H16zM20,16H22V18H20zM26,16H28V18H26zM30,16H32V18H30zM34,16H36V18H34zM38,16H40V18H38zM44,16H46V18H44zM46,16H48V18H46zM52,16H54V18H52zM54,16H56V18H54zM56,16H58V18H56zM58,16H60V18H58zM60,16H62V18H60zM62,16H64V18H62zM68,16H70V18H68zM72,16H74V18H72zM74,16H76V18H74zM76,16H78V18H76zM80,16H82V18H80zM8,18H10V20H8zM20,18H22V20H20zM24,18H26V20H24zM28,18H30V20H28zM30,18H32V20H30zM34,18H36V20H34zM38,18H40V20H38zM40,18H42V20H40zM42,18H44V20H42zM48,18H50V20H48zM54,18H56V20H54zM58,18H60V20H58zM60,18H62V20H60zM64,18H66V20H64zM68,18H70V20H68zM80,18H82V20H80zM8,20H10V22H8zM10,20H12V22H10zM12,20H14V22H12zM14,20H16V22H14zM16,20H18V22H16zM18,20H20V22H18zM20,20H22V22H20zM24,20H26V22H24zM28,20H30V22H28zM32,20H34V22H32zM36,20H38V22H36zM40,20H42V22H40zM44,20H46V22H44zM48,20H50V22H48zM52,20H54V22H52zM56,20H58V22H56zM60,20H62V22H60zM64,20H66V22H64zM68,20H70V22H68zM70,20H72V22H70zM72,20H74V22H72zM74,20H76V22H74zM76,20H78V22H76zM78,20H80V22H78zM80,20H82V22H80zM24,22H26V24H24zM28,22H30V24H28zM34,22H36V24H34zM36,22H38V24H36zM42,22H44V24H42zM44,22H46V24H44zM52,22H54V24H52zM54,22H56V24H54zM56,22H58V24H56zM60,22H62V24H60zM16,24H18V26H16zM18,24H20V26H18zM20,24H22V26H20zM22,24H24V26H22zM26,24H28V26H26zM30,24H32V26H30zM36,24H38V26H36zM38,24H40V26H38zM40,24H42V26H40zM50,24H52V26H50zM54,24H56V26H54zM56,24H58V26H56zM58,24H60V26H58zM60,24H62V26H60zM62,24H64V26H62zM68,24H70V26H68zM70,24H72V26H70zM78,24H80V26H78zM8,26H10V28H8zM14,26H16V28H14zM18,26H20V28H18zM24,26H26V28H24zM26,26H28V28H26zM30,26H32V28H30zM32,26H34V28H32zM34,26H36V28H34zM38,26H40V28H38zM42,26H44V28H42zM46,26H48V28H46zM48,26H50V28H48zM56,26H58V28H56zM64,26H66V28H64zM68,26H70V28H68zM70,26H72V28H70zM72,26H74V28H72zM8,28H10V30H8zM12,28H14V30H12zM16,28H18V30H16zM20,28H22V30H20zM28,28H30V30H28zM30,28H32V30H30zM36,28H38V30H36zM42,28H44V30H42zM44,28H46V30H44zM46,28H48V30H46zM50,28H52V30H50zM52,28H54V30H52zM56,28H58V30H56zM58,28H60V30H58zM60,28H62V30H60zM64,28H66V30H64zM66,28H68V30H66zM70,28H72V30H70zM72,28H74V30H72zM76,28H78V30H76zM8,30H10V32H8zM10,30H12V32H10zM12,30H14V32H12zM14,30H16V32H14zM16,30H18V32H16zM18,30H20V32H18zM24,30H26V32H24zM26,30H28V32H26zM28,30H30V32H28zM30,30H32V32H30zM34,30H36V32H34zM38,30H40V32H38zM44,30H46V32H44zM46,30H48V32H46zM48,30H50V32H48zM54,30H56V32H54zM56,30H58V32H56zM60,30H62V32H60zM66,30H68V32H66zM70,30H72V32H70zM72,30H74V32H72zM76,30H78V32H76zM78,30H80V32H78zM80,30H82V32H80zM8,32H10V34H8zM12,32H14V34H12zM14,32H16V34H14zM18,32H20V34H18zM20,32H22V34H20zM24,32H26V34H24zM30,32H32V34H30zM34,32H36V34H34zM36,32H38V34H36zM40,32H42V34H40zM42,32H44V34H42zM46,32H48V34H46zM54,32H56V34H54zM56,32H58V34H56zM62,32H64V34H62zM66,32H68V34H66zM68,32H70V34H68zM70,32H72V34H70zM74,32H76V34H74zM76,32H78V34H76zM78,32H80V34H78zM8,34H10V36H8zM10,34H12V36H10zM12,34H14V36H12zM16,34H18V36H16zM18,34H20V36H18zM22,34H24V36H22zM28,34H30V36H28zM34,34H36V36H34zM40,34H42V36H40zM42,34H44V36H42zM46,34H48V36H46zM48,34H50V36H48zM50,34H52V36H50zM52,34H54V36H52zM58,34H60V36H58zM62,34H64V36H62zM66,34H68V36H66zM72,34H74V36H72zM76,34H78V36H76zM78,34H80V36H78zM10,36H12V38H10zM14,36H16V38H14zM18,36H20V38H18zM20,36H22V38H20zM22,36H24V38H22zM24,36H26V38H24zM30,36H32V38H30zM34,36H36V38H34zM36,36H38V38H36zM40,36H42V38H40zM46,36H48V38H46zM48,36H50V38H48zM52,36H54V38H52zM54,36H56V38H54zM56,36H58V38H56zM60,36H62V38H60zM62,36H64V38H62zM64,36H66V38H64zM66,36H68V38H66zM68,36H70V38H68zM74,36H76V38H74zM76,36H78V38H76zM12,38H14V40H12zM14,38H16V40H14zM16,38H18V40H16zM18,38H20V40H18zM22,38H24V40H22zM28,38H30V40H28zM30,38H32V40H30zM32,38H34V40H32zM36,38H38V40H36zM38,38H40V40H38zM40,38H42V40H40zM48,38H50V40H48zM50,38H52V40H50zM52,38H54V40H52zM60,38H62V40H60zM64,38H66V40H64zM66,38H68V40H66zM68,38H70V40H68zM70,38H72V40H70zM76,38H78V40H76zM8,40H10V42H8zM16,40H18V42H16zM20,40H22V42H20zM22,40H24V42H22zM24,40H26V42H24zM26,40H28V42H26zM30,40H32V42H30zM32,40H34V42H32zM36,40H38V42H36zM40,40H42V42H40zM42,40H44V42H42zM44,40H46V42H44zM46,40H48V42H46zM50,40H52V42H50zM54,40H56V42H54zM56,40H58V42H56zM66,40H68V42H66zM68,40H70V42H68zM70,40H72V42H70zM74,40H76V42H74zM76,40H78V42H76zM80,40H82V42H80zM8,42H10V44H8zM18,42H20V44H18zM32,42H34V44H32zM36,42H38V44H36zM40,42H42V44H40zM42,42H44V44H42zM46,42H48V44H46zM48,42H50V44H48zM60,42H62V44H60zM62,42H64V44H62zM64,42H66V44H64zM72,42H74V44H72zM74,42H76V44H74zM18,44H20V46H18zM20,44H22V46H20zM22,44H24V46H22zM24,44H26V46H24zM26,44H28V46H26zM28,44H30V46H28zM30,44H32V46H30zM36,44H38V46H36zM38,44H40V46H38zM48,44H50V46H48zM52,44H54V46H52zM56,44H58V46H56zM62,44H64V46H62zM66,44H68V46H66zM68,44H70V46H68zM70,44H72V46H70zM72,44H74V46H72zM74,44H76V46H74zM76,44H78V46H76zM10,46H12V48H10zM16,46H18V48H16zM24,46H26V48H24zM28,46H30V48H28zM32,46H34V48H32zM34,46H36V48H34zM40,46H42V48H40zM44,46H46V48H44zM50,46H52V48H50zM56,46H58V48H56zM60,46H62V48H60zM62,46H64V48H62zM64,46H66V48H64zM66,46H68V48H66zM72,46H74V48H72zM76,46H78V48H76zM12,48H14V50H12zM14,48H16V50H14zM16,48H18V50H16zM18,48H20V50H18zM20,48H22V50H20zM28,48H30V50H28zM30,48H32V50H30zM32,48H34V50H32zM42,48H44V50H42zM44,48H46V50H44zM52,48H54V50H52zM54,48H56V50H54zM62,48H64V50H62zM66,48H68V50H66zM68,48H70V50H68zM76,48H78V50H76zM78,48H80V50H78zM80,48H82V50H80zM12,50H14V52H12zM16,50H18V52H16zM22,50H24V52H22zM26,50H28V52H26zM34,50H36V52H34zM40,50H42V52H40zM48,50H50V52H48zM50,50H52V52H50zM54,50H56V52H54zM60,50H62V52H60zM62,50H64V52H62zM66,50H68V52H66zM72,50H74V52H72zM74,50H76V52H74zM10,52H12V54H10zM12,52H14V54H12zM16,52H18V54H16zM18,52H20V54H18zM20,52H22V54H20zM24,52H26V54H24zM26,52H28V54H26zM30,52H32V54H30zM34,52H36V54H34zM40,52H42V54H40zM44,52H46V54H44zM48,52H50V54H48zM50,52H52V54H50zM56,52H58V54H56zM58,52H60V54H58zM60,52H62V54H60zM62,52H64V54H62zM64,52H66V54H64zM68,52H70V54H68zM8,54H10V56H8zM10,54H12V56H10zM12,54H14V56H12zM14,54H16V56H14zM26,54H28V56H26zM30,54H32V56H30zM32,54H34V56H32zM36,54H38V56H36zM38,54H40V56H38zM42,54H44V56H42zM54,54H56V56H54zM58,54H60V56H58zM64,54H66V56H64zM66,54H68V56H66zM68,54H70V56H68zM70,54H72V56H70zM76,54H78V56H76zM80,54H82V56H80zM10,56H12V58H10zM18,56H20V58H18zM20,56H22V58H20zM22,56H24V58H22zM24,56H26V58H24zM26,56H28V58H26zM34,56H36V58H34zM36,56H38V58H36zM44,56H46V58H44zM48,56H50V58H48zM56,56H58V58H56zM58,56H60V58H58zM62,56H64V58H62zM64,56H66V58H64zM66,56H68V58H66zM70,56H72V58H70zM76,56H78V58H76zM80,56H82V58H80zM8,58H10V60H8zM10,58H12V60H10zM12,58H14V60H12zM14,58H16V60H14zM18,58H20V60H18zM24,58H26V60H24zM36,58H38V60H36zM38,58H40V60H38zM40,58H42V60H40zM42,58H44V60H42zM44,58H46V60H44zM46,58H48V60H46zM48,58H50V60H48zM52,58H54V60H52zM58,58H60V60H58zM60,58H62V60H60zM68,58H70V60H68zM70,58H72V60H70zM72,58H74V60H72zM18,60H20V62H18zM20,60H22V62H20zM26,60H28V62H26zM28,60H30V62H28zM30,60H32V62H30zM44,60H46V62H44zM48,60H50V62H48zM52,60H54V62H52zM62,60H64V62H62zM66,60H68V62H66zM74,60H76V62H74zM78,60H80V62H78zM12,62H14V64H12zM14,62H16V64H14zM16,62H18V64H16zM22,62H24V64H22zM28,62H30V64H28zM30,62H32V64H30zM32,62H34V64H32zM36,62H38V64H36zM42,62H44V64H42zM44,62H46V64H44zM48,62H50V64H48zM50,62H52V64H50zM52,62H54V64H52zM56,62H58V64H56zM62,62H64V64H62zM64,62H66V64H64zM68,62H70V64H68zM70,62H72V64H70zM76,62H78V64H76zM78,62H80V64H78zM8,64H10V66H8zM10,64H12V66H10zM12,64H14V66H12zM14,64H16V66H14zM18,64H20V66H18zM20,64H22V66H20zM24,64H26V66H24zM28,64H30V66H28zM32,64H34V66H32zM34,64H36V66H34zM38,64H40V66H38zM46,64H48V66H46zM48,64H50V66H48zM50,64H52V66H50zM54,64H56V66H54zM56,64H58V66H56zM64,64H66V66H64zM66,64H68V66H66zM68,64H70V66H68zM70,64H72V66H70zM72,64H74V66H72zM76,64H78V66H76zM80,64H82V66H80zM24,66H26V68H24zM26,66H28V68H26zM28,66H30V68H28zM30,66H32V68H30zM34,66H36V68H34zM42,66H44V68H42zM44,66H46V68H44zM46,66H48V68H46zM52,66H54V68H52zM54,66H56V68H54zM58,66H60V68H58zM60,66H62V68H60zM64,66H66V68H64zM72,66H74V68H72zM74,66H76V68H74zM8,68H10V70H8zM10,68H12V70H10zM12,68H14V70H12zM14,68H16V70H14zM16,68H18V70H16zM18,68H20V70H18zM20,68H22V70H20zM24,68H26V70H24zM26,68H28V70H26zM30,68H32V70H30zM34,68H36V70H34zM38,68H40V70H38zM40,68H42V70H40zM42,68H44V70H42zM46,68H48V70H46zM54,68H56V70H54zM56,68H58V70H56zM60,68H62V70H60zM64,68H66V70H64zM68,68H70V70H68zM72,68H74V70H72zM74,68H76V70H74zM76,68H78V70H76zM8,70H10V72H8zM20,70H22V72H20zM24,70H26V72H24zM28,70H30V72H28zM34,70H36V72H34zM38,70H40V72H38zM44,70H46V72H44zM48,70H50V72H48zM50,70H52V72H50zM56,70H58V72H56zM60,70H62V72H60zM64,70H66V72H64zM72,70H74V72H72zM76,70H78V72H76zM78,70H80V72H78zM8,72H10V74H8zM12,72H14V74H12zM14,72H16V74H14zM16,72H18V74H16zM20,72H22V74H20zM24,72H26V74H24zM26,72H28V74H26zM28,72H30V74H28zM30,72H32V74H30zM34,72H36V74H34zM36,72H38V74H36zM38,72H40V74H38zM40,72H42V74H40zM42,72H44V74H42zM46,72H48V74H46zM54,72H56V74H54zM64,72H66V74H64zM66,72H68V74H66zM68,72H70V74H68zM70,72H72V74H70zM72,72H74V74H72zM74,72H76V74H74zM76,72H78V74H76zM8,74H10V76H8zM12,74H14V76H12zM14,74H16V76H14zM16,74H18V76H16zM20,74H22V76H20zM30,74H32V76H30zM32,74H34V76H32zM36,74H38V76H36zM38,74H40V76H38zM42,74H44V76H42zM44,74H46V76H44zM48,74H50V76H48zM56,74H58V76H56zM62,74H64V76H62zM68,74H70V76H68zM8,76H10V78H8zM12,76H14V78H12zM14,76H16V78H14zM16,76H18V78H16zM20,76H22V78H20zM30,76H32V78H30zM36,76H38V78H36zM38,76H40V78H38zM46,76H48V78H46zM50,76H52V78H50zM54,76H56V78H54zM56,76H58V78H56zM58,76H60V78H58zM60,76H62V78H60zM64,76H66V78H64zM68,76H70V78H68zM70,76H72V78H70zM76,76H78V78H76zM78,76H80V78H78zM8,78H10V80H8zM20,78H22V80H20zM26,78H28V80H26zM28,78H30V80H28zM30,78H32V80H30zM38,78H40V80H38zM44,78H46V80H44zM52,78H54V80H52zM54,78H56V80H54zM60,78H62V80H60zM62,78H64V80H62zM66,78H68V80H66zM70,78H72V80H70zM76,78H78V80H76zM78,78H80V80H78zM8,80H10V82H8zM10,80H12V82H10zM12,80H14V82H12zM14,80H16V82H14zM16,80H18V82H16zM18,80H20V82H18zM20,80H22V82H20zM28,80H30V82H28zM36,80H38V82H36zM42,80H44V82H42zM44,80H46V82H44zM56,80H58V82H56zM60,80H62V82H60zM62,80H64V82H62zM66,80H68V82H66zM68,80H70V82H68zM70,80H72V82H70zM76,80H78V82H76zM78,80H80V82H78zM80,80H82V82H80z" id="qr-path" fill="#0B1220" fill-opacity="1" fill-rule="nonzero" stroke="none"/></svg>